<svg xmlns="http://www.w3.org/2000/svg" xmlns:xlink="http://www.w3.org/1999/xlink" viewBox="0 0 1920 1080">
  <defs>
    <style>
      .cls-1 {
        clip-path: url(#clip-Web_1920_1);
      }

      .cls-2 {
        fill: #00ffeb;
      }

      .cls-3 {
        fill: #fff957;
      }

      .cls-4 {
        fill: #ff004e;
      }

      .cls-5 {
        fill: #fff;
      }
    </style>
    <clipPath id="clip-Web_1920_1">
      <rect width="1920" height="1080"/>
    </clipPath>
  </defs>
  <g id="Web_1920_1" data-name="Web 1920 – 1" class="cls-1">
    <rect class="cls-5" width="1920" height="1080"/>
    <path id="Path_1" data-name="Path 1" class="cls-2" d="M-39.021,962.291s24.384-4.051,120.486-126.518,142.527-155.908,222.3-121.539,163.461,85.056,267.161,82.217,441.621,126.515,545.506,240.528,275.139,169.99,235.26,222.861S-52.571,1179.216-52.571,1179.216Z" transform="translate(6 -56)"/>
    <path id="Path_2" data-name="Path 2" class="cls-3" d="M-39.021,962.291s24.384-4.051,120.486-126.518,142.527-155.908,222.3-121.539,163.461,85.056,267.161,82.217S756.894,597.184,900.044,935.5s426.973,381.192,387.094,434.064S-52.571,1179.216-52.571,1179.216Z" transform="translate(937.89 1571.898) rotate(-106)"/>
    <path id="Path_3" data-name="Path 3" class="cls-4" d="M460.586-75.685s-129.713,112.17-47.7,205.056S555.476,113.61,850.2,222.034s268.051,362.5,483.268,258.529,467.78-203.047,502.856-290.637-455.36-35.282-548.2-100.445S1126.245,100.2,1191.7-33.676s-64.454-165.472-220.471-163.213S500.293-136.812,485.98-118.473,460.586-75.685,460.586-75.685Z" transform="translate(-198 -64)"/>
  </g>
</svg>
